{
  "accessors": [
    {
      "bufferView": 2,
      "componentType": 5126,
      "count": 5576,
      "max": [
        0.03999999910593033,
        0.0020000000949949026,
        0.017999999225139618
      ],
      "min": [
        -0.03999999910593033,
        0.0,
        -0.017999999225139618
      ],
      "type": "VEC3"
    },
    {
      "bufferView": 2,
      "byteOffset": 66912,
      "componentType": 5126,
      "count": 5576,
      "max": [
        0.9994174242019653,
        1.0,
        1.0
      ],
      "min": [
        -0.9994174242019653,
        -1.0,
        -1.0
      ],
      "type": "VEC3"
    },
    {
      "bufferView": 1,
      "componentType": 5126,
      "count": 5576,
      "max": [
        0.9474309086799622,
        0.516026496887207
      ],
      "min": [
        0.05256906896829605,
        0.5
      ],
      "type": "VEC2"
    },
    {
      "bufferView": 0,
      "componentType": 5125,
      "count": 28176,
      "type": "SCALAR"
    },
    {
      "bufferView": 2,
      "byteOffset": 133824,
      "componentType": 5126,
      "count": 770,
      "max": [
        -0.03759999945759773,
        0.0020000000949949026,
        0.008899999782443047
      ],
      "min": [
        -0.039400000125169754,
        0.0010000000474974513,
        0.0071000000461936
      ],
      "type": "VEC3"
    },
    {
      "bufferView": 2,
      "byteOffset": 143064,
      "componentType": 5126,
      "count": 770,
      "max": [
        0.9999825954437256,
        1.0,
        0.9999956488609314
      ],
      "min": [
        -0.9999492764472961,
        -1.0,
        -0.9999957084655762
      ],
      "type": "VEC3"
    },
    {
      "bufferView": 1,
      "byteOffset": 44608,
      "componentType": 5126,
      "count": 770,
      "max": [
        0.5362498164176941,
        0.5165539383888245
      ],
      "min": [
        0.528964102268219,
        0.5079121589660645
      ],
      "type": "VEC2"
    },
    {
      "bufferView": 0,
      "byteOffset": 112704,
      "componentType": 5125,
      "count": 2304,
      "type": "SCALAR"
    },
    {
      "bufferView": 2,
      "byteOffset": 152304,
      "componentType": 5126,
      "count": 1672,
      "max": [
        0.05499700829386711,
        0.02164902351796627,
        0.029999999329447746
      ],
      "min": [
        -0.05499700829386711,
        0.004990197718143463,
        -0.029999999329447746
      ],
      "type": "VEC3"
    },
    {
      "bufferView": 2,
      "byteOffset": 172368,
      "componentType": 5126,
      "count": 1672,
      "max": [
        0.9999821186065674,
        0.9995436668395996,
        1.0
      ],
      "min": [
        -0.9999821186065674,
        -0.9995308518409729,
        -1.0
      ],
      "type": "VEC3"
    },
    {
      "bufferView": 1,
      "byteOffset": 50768,
      "componentType": 5126,
      "count": 1672,
      "max": [
        1.25,
        0.9507836699485779
      ],
      "min": [
        0.0001304495963267982,
        0.5283581018447876
      ],
      "type": "VEC2"
    },
    {
      "bufferView": 0,
      "byteOffset": 121920,
      "componentType": 5125,
      "count": 6072,
      "type": "SCALAR"
    },
    {
      "bufferView": 2,
      "byteOffset": 192432,
      "componentType": 5126,
      "count": 92,
      "max": [
        -0.0345006100833416,
        0.0020000000949949026,
        0.008999999612569809
      ],
      "min": [
        -0.03949939087033272,
        0.0020000000949949026,
        0.007000000216066837
      ],
      "type": "VEC3"
    },
    {
      "bufferView": 2,
      "byteOffset": 193536,
      "componentType": 5126,
      "count": 92,
      "max": [
        0.0,
        -1.0,
        -0.0
      ],
      "min": [
        0.0,
        -1.0,
        -0.0
      ],
      "type": "VEC3"
    },
    {
      "bufferView": 1,
      "byteOffset": 64144,
      "componentType": 5126,
      "count": 92,
      "max": [
        0.5396487712860107,
        0.5179693102836609
      ],
      "min": [
        0.5285611152648926,
        0.5157755017280579
      ],
      "type": "VEC2"
    },
    {
      "bufferView": 0,
      "byteOffset": 146208,
      "componentType": 5125,
      "count": 270,
      "type": "SCALAR"
    },
    {
      "bufferView": 2,
      "byteOffset": 194640,
      "componentType": 5126,
      "count": 226,
      "max": [
        0.03953545168042183,
        0.0167482178658247,
        0.005214447621256113
      ],
      "min": [
        0.027249744161963463,
        0.012837265618145466,
        -0.005121883470565081
      ],
      "type": "VEC3"
    },
    {
      "bufferView": 2,
      "byteOffset": 197352,
      "componentType": 5126,
      "count": 226,
      "max": [
        -0.24809761345386505,
        -0.9381812810897827,
        0.043757613748311996
      ],
      "min": [
        -0.34572601318359375,
        -0.9684703350067139,
        -0.036151230335235596
      ],
      "type": "VEC3"
    },
    {
      "bufferView": 1,
      "byteOffset": 64880,
      "componentType": 5126,
      "count": 226,
      "max": [
        1.0181269645690918,
        0.6748203635215759
      ],
      "min": [
        0.00010733003728091717,
        0.5997738838195801
      ],
      "type": "VEC2"
    },
    {
      "bufferView": 0,
      "byteOffset": 147288,
      "componentType": 5125,
      "count": 657,
      "type": "SCALAR"
    },
    {
      "bufferView": 2,
      "byteOffset": 200064,
      "componentType": 5126,
      "count": 5809,
      "max": [
        0.05499689280986786,
        0.019948193803429604,
        0.029999999329447746
      ],
      "min": [
        -0.05499689280986786,
        0.0014084514696151018,
        -0.029999999329447746
      ],
      "type": "VEC3"
    },
    {
      "bufferView": 2,
      "byteOffset": 269772,
      "componentType": 5126,
      "count": 5809,
      "max": [
        1.0,
        0.9995291233062744,
        1.0
      ],
      "min": [
        -1.0,
        -1.0,
        -1.0
      ],
      "type": "VEC3"
    },
    {
      "bufferView": 1,
      "byteOffset": 66688,
      "componentType": 5126,
      "count": 5809,
      "max": [
        1.25,
        0.9466420412063599
      ],
      "min": [
        0.0023922771215438843,
        0.5092376470565796
      ],
      "type": "VEC2"
    },
    {
      "bufferView": 0,
      "byteOffset": 149916,
      "componentType": 5125,
      "count": 25740,
      "type": "SCALAR"
    },
    {
      "bufferView": 3,
      "componentType": 5126,
      "count": 63,
      "max": [
        5.0
      ],
      "min": [
        0.0
      ],
      "type": "SCALAR"
    },
    {
      "bufferView": 4,
      "componentType": 5126,
      "count": 63,
      "max": [
        0.0,
        0.04256941005587578,
        5.2828418972694635e-08
      ],
      "min": [
        0.0,
        0.0,
        0.0
      ],
      "type": "VEC3"
    },
    {
      "bufferView": 3,
      "byteOffset": 252,
      "componentType": 5126,
      "count": 63,
      "max": [
        5.0
      ],
      "min": [
        0.0
      ],
      "type": "SCALAR"
    },
    {
      "bufferView": 5,
      "componentType": 5126,
      "count": 63,
      "max": [
        1.0,
        0.0,
        0.0,
        1.0
      ],
      "min": [
        -0.8509937524795532,
        0.0,
        0.0,
        -0.4606112837791443
      ],
      "type": "VEC4"
    }
  ],
  "animations": [
    {
      "channels": [
        {
          "sampler": 0,
          "target": {
            "node": 5,
            "path": "translation"
          }
        },
        {
          "sampler": 1,
          "target": {
            "node": 5,
            "path": "rotation"
          }
        }
      ],
      "name": "CINEMA_4D_Main",
      "samplers": [
        {
          "input": 24,
          "interpolation": "LINEAR",
          "output": 25
        },
        {
          "input": 26,
          "interpolation": "LINEAR",
          "output": 27
        }
      ]
    }
  ],
  "asset": {
    "extras": {
      "author": "umezawa (https://sketchfab.com/umezawa)",
      "license": "CC-BY-4.0 (http://creativecommons.org/licenses/by/4.0/)",
      "source": "https://sketchfab.com/3d-models/apple-magic-mouse-daeb7e227e7f4a77b39ac8a99f7a9e93",
      "title": "apple magic mouse"
    },
    "generator": "Sketchfab-12.66.0",
    "version": "2.0"
  },
  "bufferViews": [
    {
      "buffer": 0,
      "byteLength": 252876,
      "name": "floatBufferViews",
      "target": 34963
    },
    {
      "buffer": 0,
      "byteLength": 113160,
      "byteOffset": 252876,
      "byteStride": 8,
      "name": "floatBufferViews",
      "target": 34962
    },
    {
      "buffer": 0,
      "byteLength": 339480,
      "byteOffset": 366036,
      "byteStride": 12,
      "name": "floatBufferViews",
      "target": 34962
    },
    {
      "buffer": 0,
      "byteLength": 504,
      "byteOffset": 705516,
      "name": "floatBufferViews"
    },
    {
      "buffer": 0,
      "byteLength": 756,
      "byteOffset": 706020,
      "byteStride": 12,
      "name": "floatBufferViews"
    },
    {
      "buffer": 0,
      "byteLength": 1008,
      "byteOffset": 706776,
      "byteStride": 16,
      "name": "floatBufferViews"
    }
  ],
  "buffers": [
    {
      "byteLength": 707784,
      "uri": "scene.bin"
    }
  ],
  "materials": [
    {
      "doubleSided": true,
      "name": "material",
      "pbrMetallicRoughness": {
        "baseColorFactor": [
          0.06730941697219538,
          0.06730941697219538,
          0.06730941697219538,
          1.0
        ],
        "metallicFactor": 0.0,
        "roughnessFactor": 0.5185247675853808
      }
    },
    {
      "doubleSided": true,
      "name": "Mat.1",
      "pbrMetallicRoughness": {
        "baseColorFactor": [
          0.26,
          0.26,
          0.26,
          1.0
        ],
        "metallicFactor": 0.0,
        "roughnessFactor": 0.920829522345466
      }
    },
    {
      "alphaMode": "BLEND",
      "doubleSided": true,
      "name": "Mat.2",
      "pbrMetallicRoughness": {
        "baseColorFactor": [
          0.7407170956228835,
          0.7407170956228835,
          0.7407170956228835,
          0.24491697523545472
        ],
        "metallicFactor": 0.0,
        "roughnessFactor": 0.0
      }
    },
    {
      "doubleSided": true,
      "name": "Mat.3",
      "pbrMetallicRoughness": {
        "baseColorFactor": [
          0.4987199530935721,
          0.4987199530935721,
          0.4987199530935721,
          1.0
        ],
        "metallicFactor": 0.6705290966686731,
        "roughnessFactor": 0.5483571372112678
      }
    },
    {
      "doubleSided": true,
      "name": "Mat.4",
      "pbrMetallicRoughness": {
        "baseColorFactor": [
          0.57,
          0.57,
          0.57,
          1.0
        ],
        "metallicFactor": 0.0,
        "roughnessFactor": 0.9524317153998911
      }
    }
  ],
  "meshes": [
    {
      "name": "Node_0_Mat_0",
      "primitives": [
        {
          "attributes": {
            "NORMAL": 1,
            "POSITION": 0,
            "TEXCOORD_0": 2
          },
          "indices": 3,
          "material": 0,
          "mode": 4
        }
      ]
    },
    {
      "name": "Node_1_Mat.1_0",
      "primitives": [
        {
          "attributes": {
            "NORMAL": 5,
            "POSITION": 4,
            "TEXCOORD_0": 6
          },
          "indices": 7,
          "material": 1,
          "mode": 4
        }
      ]
    },
    {
      "name": "Node_2_Mat.2_0",
      "primitives": [
        {
          "attributes": {
            "NORMAL": 9,
            "POSITION": 8,
            "TEXCOORD_0": 10
          },
          "indices": 11,
          "material": 2,
          "mode": 4
        }
      ]
    },
    {
      "name": "Node_3_Mat.3_0",
      "primitives": [
        {
          "attributes": {
            "NORMAL": 13,
            "POSITION": 12,
            "TEXCOORD_0": 14
          },
          "indices": 15,
          "material": 3,
          "mode": 4
        }
      ]
    },
    {
      "name": "Node_4_Mat.4_0",
      "primitives": [
        {
          "attributes": {
            "NORMAL": 17,
            "POSITION": 16,
            "TEXCOORD_0": 18
          },
          "indices": 19,
          "material": 4,
          "mode": 4
        }
      ]
    },
    {
      "name": "Node_5_Mat.3_0",
      "primitives": [
        {
          "attributes": {
            "NORMAL": 21,
            "POSITION": 20,
            "TEXCOORD_0": 22
          },
          "indices": 23,
          "material": 3,
          "mode": 4
        }
      ]
    }
  ],
  "nodes": [
    {
      "children": [
        1
      ],
      "matrix": [
        1.0,
        0.0,
        0.0,
        0.0,
        0.0,
        2.220446049250313e-16,
        -1.0,
        0.0,
        0.0,
        1.0,
        2.220446049250313e-16,
        0.0,
        0.0,
        6.156080090136129e-09,
        -1.8891138652020504e-14,
        1.0
      ],
      "name": "Sketchfab_model"
    },
    {
      "children": [
        2
      ],
      "matrix": [
        1.0,
        0.0,
        0.0,
        0.0,
        0.0,
        0.0,
        1.0,
        0.0,
        0.0,
        -1.0,
        0.0,
        0.0,
        0.0,
        0.0,
        0.0,
        1.0
      ],
      "name": "applemouse.fbx"
    },
    {
      "children": [
        3
      ],
      "name": "Object_2"
    },
    {
      "children": [
        4
      ],
      "name": "RootNode"
    },
    {
      "children": [
        5
      ],
      "name": "temp_export"
    },
    {
      "children": [
        6,
        8,
        10,
        12,
        14,
        16
      ],
      "name": "Geom"
    },
    {
      "children": [
        7
      ],
      "name": "Node_0"
    },
    {
      "mesh": 0,
      "name": "Node_0_Mat_0"
    },
    {
      "children": [
        9
      ],
      "name": "Node_1"
    },
    {
      "mesh": 1,
      "name": "Node_1_Mat.1_0"
    },
    {
      "children": [
        11
      ],
      "name": "Node_2"
    },
    {
      "mesh": 2,
      "name": "Node_2_Mat.2_0"
    },
    {
      "children": [
        13
      ],
      "name": "Node_3"
    },
    {
      "mesh": 3,
      "name": "Node_3_Mat.3_0"
    },
    {
      "children": [
        15
      ],
      "name": "Node_4"
    },
    {
      "mesh": 4,
      "name": "Node_4_Mat.4_0"
    },
    {
      "children": [
        17
      ],
      "name": "Node_5"
    },
    {
      "mesh": 5,
      "name": "Node_5_Mat.3_0"
    }
  ],
  "scene": 0,
  "scenes": [
    {
      "name": "Sketchfab_Scene",
      "nodes": [
        0
      ]
    }
  ]
}
