{
  "accessors": [
    {
      "bufferView": 2,
      "componentType": 5126,
      "count": 67,
      "max": [
        0.5459999442100525,
        0.9557960033416748,
        1.1134967803955078
      ],
      "min": [
        -0.5459999442100525,
        -0.022135555744171143,
        -1.9772670269012451
      ],
      "type": "VEC3"
    },
    {
      "bufferView": 2,
      "byteOffset": 804,
      "componentType": 5126,
      "count": 67,
      "max": [
        0.999784529209137,
        1.0,
        0.7071068286895752
      ],
      "min": [
        -1.0,
        -1.0,
        -1.0
      ],
      "type": "VEC3"
    },
    {
      "bufferView": 3,
      "componentType": 5126,
      "count": 67,
      "max": [
        1.0,
        1.0,
        0.07469263672828674,
        1.0
      ],
      "min": [
        -0.003144396236166358,
        -2.1274727259879e-05,
        -0.9881808757781982,
        1.0
      ],
      "type": "VEC4"
    },
    {
      "bufferView": 1,
      "componentType": 5126,
      "count": 67,
      "max": [
        0.22674670815467834,
        0.993896484375
      ],
      "min": [
        0.0061035193502902985,
        0.1684858798980713
      ],
      "type": "VEC2"
    },
    {
      "bufferView": 0,
      "componentType": 5125,
      "count": 123,
      "type": "SCALAR"
    },
    {
      "bufferView": 2,
      "byteOffset": 1608,
      "componentType": 5126,
      "count": 32,
      "max": [
        0.5459999442100525,
        0.9174455404281616,
        1.0298371315002441
      ],
      "min": [
        -0.5459999442100525,
        0.017653945833444595,
        -1.9772670269012451
      ],
      "type": "VEC3"
    },
    {
      "bufferView": 2,
      "byteOffset": 1992,
      "componentType": 5126,
      "count": 32,
      "max": [
        0.9803422093391418,
        1.0,
        0.05514342710375786
      ],
      "min": [
        -4.266280484443996e-08,
        -0.8766809701919556,
        -0.7071058750152588
      ],
      "type": "VEC3"
    },
    {
      "bufferView": 3,
      "byteOffset": 1072,
      "componentType": 5126,
      "count": 32,
      "max": [
        1.0,
        0.9879486560821533,
        0.10007354617118835,
        1.0
      ],
      "min": [
        -0.5341729521751404,
        -5.539224616768479e-07,
        -0.014662355184555054,
        1.0
      ],
      "type": "VEC4"
    },
    {
      "bufferView": 1,
      "byteOffset": 536,
      "componentType": 5126,
      "count": 32,
      "max": [
        0.21305763721466064,
        0.7824084162712097
      ],
      "min": [
        0.006103902123868465,
        0.006103515625
      ],
      "type": "VEC2"
    },
    {
      "bufferView": 0,
      "byteOffset": 492,
      "componentType": 5125,
      "count": 42,
      "type": "SCALAR"
    },
    {
      "bufferView": 2,
      "byteOffset": 2376,
      "componentType": 5126,
      "count": 80,
      "max": [
        -0.5459998846054077,
        0.8652534484863281,
        1.0579062700271606
      ],
      "min": [
        -0.5588799118995667,
        0.025494635105133057,
        -0.24429434537887573
      ],
      "type": "VEC3"
    },
    {
      "bufferView": 2,
      "byteOffset": 3336,
      "componentType": 5126,
      "count": 80,
      "max": [
        1.0,
        1.0,
        0.9622839689254761
      ],
      "min": [
        -1.0,
        -1.0,
        -0.9883834719657898
      ],
      "type": "VEC3"
    },
    {
      "bufferView": 3,
      "byteOffset": 1584,
      "componentType": 5126,
      "count": 80,
      "max": [
        1.0,
        1.0,
        0.9622844457626343,
        1.0
      ],
      "min": [
        -1.0,
        -0.7227038145065308,
        -0.9622843265533447,
        1.0
      ],
      "type": "VEC4"
    },
    {
      "bufferView": 1,
      "byteOffset": 792,
      "componentType": 5126,
      "count": 80,
      "max": [
        0.14664356410503387,
        0.8557383418083191
      ],
      "min": [
        0.006103515625,
        0.0061069936491549015
      ],
      "type": "VEC2"
    },
    {
      "bufferView": 0,
      "byteOffset": 660,
      "componentType": 5125,
      "count": 120,
      "type": "SCALAR"
    },
    {
      "bufferView": 2,
      "byteOffset": 4296,
      "componentType": 5126,
      "count": 1692,
      "max": [
        0.28422480821609497,
        0.46657121181488037,
        -1.4945430755615234
      ],
      "min": [
        0.22608433663845062,
        -0.018631577491760254,
        -2.0279345512390137
      ],
      "type": "VEC3"
    },
    {
      "bufferView": 2,
      "byteOffset": 24600,
      "componentType": 5126,
      "count": 1692,
      "max": [
        0.9996611475944519,
        0.9980290532112122,
        0.9984206557273865
      ],
      "min": [
        -0.9996611475944519,
        -0.7254786491394043,
        -0.7431423664093018
      ],
      "type": "VEC3"
    },
    {
      "bufferView": 1,
      "byteOffset": 1432,
      "componentType": 5126,
      "count": 1692,
      "max": [
        0.12319928407669067,
        0.944575309753418
      ],
      "min": [
        0.006103515625,
        0.09451623260974884
      ],
      "type": "VEC2"
    },
    {
      "bufferView": 0,
      "byteOffset": 1140,
      "componentType": 5125,
      "count": 7908,
      "type": "SCALAR"
    },
    {
      "bufferView": 2,
      "byteOffset": 44904,
      "componentType": 5126,
      "count": 464,
      "max": [
        -0.43044760823249817,
        0.8400081396102905,
        0.7093037962913513
      ],
      "min": [
        -0.5923628211021423,
        0.6063845753669739,
        -0.07355959713459015
      ],
      "type": "VEC3"
    },
    {
      "bufferView": 2,
      "byteOffset": 50472,
      "componentType": 5126,
      "count": 464,
      "max": [
        1.0,
        1.0,
        1.0
      ],
      "min": [
        -1.0,
        -1.0,
        -1.0
      ],
      "type": "VEC3"
    },
    {
      "bufferView": 1,
      "byteOffset": 14968,
      "componentType": 5126,
      "count": 464,
      "max": [
        0.1355113685131073,
        0.9825345873832703
      ],
      "min": [
        0.015675561502575874,
        0.127518892288208
      ],
      "type": "VEC2"
    },
    {
      "bufferView": 0,
      "byteOffset": 32772,
      "componentType": 5125,
      "count": 1368,
      "type": "SCALAR"
    }
  ],
  "asset": {
    "extras": {
      "author": "Narr.yworld (https://sketchfab.com/Narr.yworld)",
      "license": "CC-BY-4.0 (http://creativecommons.org/licenses/by/4.0/)",
      "source": "https://sketchfab.com/3d-models/office-desk-8b5bb3e1f9804ac7ab701fe2ce1c2018",
      "title": "Office desk"
    },
    "generator": "Sketchfab-13.74.0",
    "version": "2.0"
  },
  "bufferViews": [
    {
      "buffer": 0,
      "byteLength": 38244,
      "name": "floatBufferViews",
      "target": 34963
    },
    {
      "buffer": 0,
      "byteLength": 18680,
      "byteOffset": 38244,
      "byteStride": 8,
      "name": "floatBufferViews",
      "target": 34962
    },
    {
      "buffer": 0,
      "byteLength": 56040,
      "byteOffset": 56924,
      "byteStride": 12,
      "name": "floatBufferViews",
      "target": 34962
    },
    {
      "buffer": 0,
      "byteLength": 2864,
      "byteOffset": 112964,
      "byteStride": 16,
      "name": "floatBufferViews",
      "target": 34962
    }
  ],
  "buffers": [
    {
      "byteLength": 115828,
      "uri": "scene.bin"
    }
  ],
  "images": [
    {
      "uri": "textures/Material.001_baseColor.png"
    },
    {
      "uri": "textures/Material.001_metallicRoughness.png"
    },
    {
      "uri": "textures/Material.001_normal.png"
    },
    {
      "uri": "textures/Material.002_baseColor.png"
    },
    {
      "uri": "textures/Material.002_metallicRoughness.png"
    },
    {
      "uri": "textures/Material.002_normal.png"
    },
    {
      "uri": "textures/Material.004_baseColor.png"
    },
    {
      "uri": "textures/Material.004_metallicRoughness.png"
    }
  ],
  "materials": [
    {
      "doubleSided": true,
      "name": "Material.001",
      "normalTexture": {
        "index": 2
      },
      "pbrMetallicRoughness": {
        "baseColorTexture": {
          "index": 0
        },
        "metallicRoughnessTexture": {
          "index": 1
        }
      }
    },
    {
      "doubleSided": true,
      "name": "Material.002",
      "normalTexture": {
        "index": 5
      },
      "pbrMetallicRoughness": {
        "baseColorTexture": {
          "index": 3
        },
        "metallicRoughnessTexture": {
          "index": 4
        }
      }
    },
    {
      "doubleSided": true,
      "name": "Material.004",
      "pbrMetallicRoughness": {
        "baseColorTexture": {
          "index": 6
        },
        "metallicRoughnessTexture": {
          "index": 7
        }
      }
    }
  ],
  "meshes": [
    {
      "name": "Object_0",
      "primitives": [
        {
          "attributes": {
            "NORMAL": 1,
            "POSITION": 0,
            "TANGENT": 2,
            "TEXCOORD_0": 3
          },
          "indices": 4,
          "material": 0,
          "mode": 4
        }
      ]
    },
    {
      "name": "Object_1",
      "primitives": [
        {
          "attributes": {
            "NORMAL": 6,
            "POSITION": 5,
            "TANGENT": 7,
            "TEXCOORD_0": 8
          },
          "indices": 9,
          "material": 1,
          "mode": 4
        }
      ]
    },
    {
      "name": "Object_2",
      "primitives": [
        {
          "attributes": {
            "NORMAL": 11,
            "POSITION": 10,
            "TANGENT": 12,
            "TEXCOORD_0": 13
          },
          "indices": 14,
          "material": 1,
          "mode": 4
        }
      ]
    },
    {
      "name": "Object_3",
      "primitives": [
        {
          "attributes": {
            "NORMAL": 16,
            "POSITION": 15,
            "TEXCOORD_0": 17
          },
          "indices": 18,
          "material": 2,
          "mode": 4
        }
      ]
    },
    {
      "name": "Object_4",
      "primitives": [
        {
          "attributes": {
            "NORMAL": 20,
            "POSITION": 19,
            "TEXCOORD_0": 21
          },
          "indices": 22,
          "material": 2,
          "mode": 4
        }
      ]
    }
  ],
  "nodes": [
    {
      "children": [
        1
      ],
      "matrix": [
        0.9783968925476074,
        0.0,
        0.0,
        0.0,
        0.0,
        2.172477514656118e-16,
        -0.9783968925476074,
        0.0,
        0.0,
        0.9783968925476074,
        2.172477514656118e-16,
        0.0,
        0.0,
        0.0,
        0.0,
        1.0
      ],
      "name": "Sketchfab_model"
    },
    {
      "children": [
        2
      ],
      "name": "root"
    },
    {
      "children": [
        3,
        6,
        8,
        10
      ],
      "matrix": [
        1.0,
        0.0,
        0.0,
        0.0,
        0.0,
        2.220446049250313e-16,
        1.0,
        0.0,
        0.0,
        -1.0,
        2.220446049250313e-16,
        0.0,
        0.0,
        0.0,
        0.0,
        1.0
      ],
      "name": "GLTF_SceneRootNode"
    },
    {
      "children": [
        4,
        5
      ],
      "name": "scrivania_0"
    },
    {
      "mesh": 0,
      "name": "Object_4"
    },
    {
      "mesh": 1,
      "name": "Object_5"
    },
    {
      "children": [
        7
      ],
      "name": "casetti_1"
    },
    {
      "mesh": 2,
      "name": "Object_7"
    },
    {
      "children": [
        9
      ],
      "name": "appogio terra_2"
    },
    {
      "mesh": 3,
      "name": "Object_9"
    },
    {
      "children": [
        11
      ],
      "name": "maniglie_3"
    },
    {
      "mesh": 4,
      "name": "Object_11"
    }
  ],
  "samplers": [
    {
      "magFilter": 9729,
      "minFilter": 9987,
      "wrapS": 10497,
      "wrapT": 10497
    }
  ],
  "scene": 0,
  "scenes": [
    {
      "name": "Sketchfab_Scene",
      "nodes": [
        0
      ]
    }
  ],
  "textures": [
    {
      "sampler": 0,
      "source": 0
    },
    {
      "sampler": 0,
      "source": 1
    },
    {
      "sampler": 0,
      "source": 2
    },
    {
      "sampler": 0,
      "source": 3
    },
    {
      "sampler": 0,
      "source": 4
    },
    {
      "sampler": 0,
      "source": 5
    },
    {
      "sampler": 0,
      "source": 6
    },
    {
      "sampler": 0,
      "source": 7
    }
  ]
}
